<svg width="24" height="25" viewBox="0 0 24 25" fill="none" xmlns="http://www.w3.org/2000/svg">
<g clip-path="url(#clip0_54_161)">
<path fill-rule="evenodd" clip-rule="evenodd" d="M16.8433 7.04794C15.6043 5.86623 13.9508 5.22247 12.24 5.24893C9.10936 5.24893 6.45055 7.36098 5.50253 10.205C4.99987 11.6953 4.99987 13.3092 5.50253 14.7996H5.50693C6.45934 17.6392 9.11376 19.7512 12.2444 19.7512C13.8604 19.7512 15.2478 19.3379 16.323 18.6078V18.6048C17.5885 17.7671 18.4528 16.4487 18.7217 14.9583H12.24V10.3373H23.5588C23.6999 11.1398 23.766 11.96 23.766 12.7757C23.766 16.4255 22.4616 19.5113 20.1921 21.6013L20.1944 21.6032C18.2058 23.4374 15.4764 24.5001 12.24 24.5001C7.70278 24.5001 3.55359 21.9427 1.51648 17.8905C-0.18551 14.4997 -0.185506 10.5049 1.51649 7.11411C3.5536 3.05752 7.70277 0.500076 12.24 0.500076C15.2207 0.464802 18.1 1.58477 20.2694 3.62188L16.8433 7.04794Z" fill="white"/>
</g>
<defs>
<clipPath id="clip0_54_161">
<rect width="24" height="24" fill="white" transform="translate(0 0.5)"/>
</clipPath>
</defs>
</svg>
